<mxfile host="app.diagrams.net" agent="Mozilla/5.0 (Windows NT 10.0; Win64; x64) AppleWebKit/537.36 (KHTML, like Gecko) Chrome/137.0.0.0 Safari/537.36" version="27.1.0">
  <diagram name="Página-1" id="AYDfr9IahFkRwwhWkLNe">
    <mxGraphModel dx="1895" dy="1022" grid="1" gridSize="10" guides="1" tooltips="1" connect="1" arrows="1" fold="1" page="1" pageScale="1" pageWidth="827" pageHeight="1169" math="0" shadow="0">
      <root>
        <mxCell id="0" />
        <mxCell id="1" parent="0" />
        <mxCell id="cICFvP4eG1IFSkUvwOIK-3" style="edgeStyle=orthogonalEdgeStyle;rounded=0;orthogonalLoop=1;jettySize=auto;html=1;exitX=1;exitY=1;exitDx=0;exitDy=0;entryX=1;entryY=0;entryDx=0;entryDy=0;" edge="1" parent="1" source="cICFvP4eG1IFSkUvwOIK-1" target="cICFvP4eG1IFSkUvwOIK-2">
          <mxGeometry relative="1" as="geometry" />
        </mxCell>
        <mxCell id="cICFvP4eG1IFSkUvwOIK-4" value="HTTPS/SMTP" style="edgeLabel;html=1;align=center;verticalAlign=middle;resizable=0;points=[];" vertex="1" connectable="0" parent="cICFvP4eG1IFSkUvwOIK-3">
          <mxGeometry x="-0.1371" y="2" relative="1" as="geometry">
            <mxPoint x="38" y="-10" as="offset" />
          </mxGeometry>
        </mxCell>
        <mxCell id="cICFvP4eG1IFSkUvwOIK-1" value="Usuário no navegador&amp;nbsp;" style="rounded=0;whiteSpace=wrap;html=1;" vertex="1" parent="1">
          <mxGeometry x="130" y="50" width="120" height="60" as="geometry" />
        </mxCell>
        <mxCell id="cICFvP4eG1IFSkUvwOIK-2" value="Firewall c/ regras de acesso" style="rounded=0;whiteSpace=wrap;html=1;" vertex="1" parent="1">
          <mxGeometry x="130" y="180" width="120" height="60" as="geometry" />
        </mxCell>
        <mxCell id="cICFvP4eG1IFSkUvwOIK-10" value="" style="shape=cube;whiteSpace=wrap;html=1;boundedLbl=1;backgroundOutline=1;darkOpacity=0.05;darkOpacity2=0.1;" vertex="1" parent="1">
          <mxGeometry x="130" y="310" width="420" height="130" as="geometry" />
        </mxCell>
        <mxCell id="cICFvP4eG1IFSkUvwOIK-15" value="" style="endArrow=none;html=1;rounded=0;exitX=0;exitY=0;exitDx=220;exitDy=130;exitPerimeter=0;" edge="1" parent="1" source="cICFvP4eG1IFSkUvwOIK-10">
          <mxGeometry width="50" height="50" relative="1" as="geometry">
            <mxPoint x="320" y="440" as="sourcePoint" />
            <mxPoint x="350" y="330" as="targetPoint" />
          </mxGeometry>
        </mxCell>
        <mxCell id="cICFvP4eG1IFSkUvwOIK-16" value="MailService" style="shape=parallelogram;perimeter=parallelogramPerimeter;whiteSpace=wrap;html=1;fixedSize=1;" vertex="1" parent="1">
          <mxGeometry x="390" y="360" width="120" height="60" as="geometry" />
        </mxCell>
        <mxCell id="cICFvP4eG1IFSkUvwOIK-48" value="" style="edgeStyle=orthogonalEdgeStyle;rounded=0;orthogonalLoop=1;jettySize=auto;html=1;" edge="1" parent="1" source="cICFvP4eG1IFSkUvwOIK-17" target="cICFvP4eG1IFSkUvwOIK-29">
          <mxGeometry relative="1" as="geometry" />
        </mxCell>
        <mxCell id="cICFvP4eG1IFSkUvwOIK-17" value="Servidor WEB" style="shape=parallelogram;perimeter=parallelogramPerimeter;whiteSpace=wrap;html=1;fixedSize=1;" vertex="1" parent="1">
          <mxGeometry x="180" y="360" width="120" height="60" as="geometry" />
        </mxCell>
        <mxCell id="cICFvP4eG1IFSkUvwOIK-19" style="edgeStyle=orthogonalEdgeStyle;rounded=0;orthogonalLoop=1;jettySize=auto;html=1;exitX=1;exitY=0.5;exitDx=0;exitDy=0;entryX=0.567;entryY=0.083;entryDx=0;entryDy=0;entryPerimeter=0;" edge="1" parent="1" source="cICFvP4eG1IFSkUvwOIK-2" target="cICFvP4eG1IFSkUvwOIK-16">
          <mxGeometry relative="1" as="geometry" />
        </mxCell>
        <mxCell id="cICFvP4eG1IFSkUvwOIK-20" style="edgeStyle=orthogonalEdgeStyle;rounded=0;orthogonalLoop=1;jettySize=auto;html=1;exitX=0.5;exitY=1;exitDx=0;exitDy=0;entryX=0.57;entryY=0.083;entryDx=0;entryDy=0;entryPerimeter=0;" edge="1" parent="1" source="cICFvP4eG1IFSkUvwOIK-2" target="cICFvP4eG1IFSkUvwOIK-17">
          <mxGeometry relative="1" as="geometry" />
        </mxCell>
        <mxCell id="cICFvP4eG1IFSkUvwOIK-22" style="edgeStyle=orthogonalEdgeStyle;rounded=0;orthogonalLoop=1;jettySize=auto;html=1;exitX=1;exitY=1;exitDx=0;exitDy=0;entryX=0.52;entryY=0.023;entryDx=0;entryDy=0;entryPerimeter=0;" edge="1" parent="1" source="cICFvP4eG1IFSkUvwOIK-2" target="cICFvP4eG1IFSkUvwOIK-10">
          <mxGeometry relative="1" as="geometry" />
        </mxCell>
        <mxCell id="cICFvP4eG1IFSkUvwOIK-23" value="SMTP/IMAPS" style="text;html=1;align=center;verticalAlign=middle;whiteSpace=wrap;rounded=0;" vertex="1" parent="1">
          <mxGeometry x="470" y="250" width="60" height="30" as="geometry" />
        </mxCell>
        <mxCell id="cICFvP4eG1IFSkUvwOIK-24" value="Proxy Reverso" style="text;html=1;align=center;verticalAlign=middle;whiteSpace=wrap;rounded=0;" vertex="1" parent="1">
          <mxGeometry x="130" y="270" width="60" height="30" as="geometry" />
        </mxCell>
        <mxCell id="cICFvP4eG1IFSkUvwOIK-25" value="&lt;font style=&quot;font-size: 10px;&quot;&gt;&lt;b&gt;DMZ&lt;/b&gt;&lt;/font&gt;" style="text;html=1;align=center;verticalAlign=middle;whiteSpace=wrap;rounded=0;" vertex="1" parent="1">
          <mxGeometry x="320" y="310" width="60" height="30" as="geometry" />
        </mxCell>
        <mxCell id="cICFvP4eG1IFSkUvwOIK-26" value="" style="shape=cube;whiteSpace=wrap;html=1;boundedLbl=1;backgroundOutline=1;darkOpacity=0.05;darkOpacity2=0.1;" vertex="1" parent="1">
          <mxGeometry x="40" y="470" width="670" height="390" as="geometry" />
        </mxCell>
        <mxCell id="cICFvP4eG1IFSkUvwOIK-27" value="&lt;b&gt;Rede Interna&lt;/b&gt;" style="text;html=1;align=center;verticalAlign=middle;whiteSpace=wrap;rounded=0;" vertex="1" parent="1">
          <mxGeometry x="320" y="490" width="100" height="30" as="geometry" />
        </mxCell>
        <mxCell id="cICFvP4eG1IFSkUvwOIK-28" value="" style="shape=cube;whiteSpace=wrap;html=1;boundedLbl=1;backgroundOutline=1;darkOpacity=0.05;darkOpacity2=0.1;direction=west;" vertex="1" parent="1">
          <mxGeometry x="130" y="540" width="120" height="80" as="geometry" />
        </mxCell>
        <mxCell id="cICFvP4eG1IFSkUvwOIK-29" value="&lt;font style=&quot;font-size: 10px;&quot;&gt;&lt;b&gt;IDS/IPS&lt;/b&gt;&lt;/font&gt;" style="text;html=1;align=center;verticalAlign=middle;whiteSpace=wrap;rounded=0;" vertex="1" parent="1">
          <mxGeometry x="150" y="535" width="60" height="30" as="geometry" />
        </mxCell>
        <mxCell id="cICFvP4eG1IFSkUvwOIK-30" value="&lt;font style=&quot;font-size: 14px;&quot;&gt;Snort&lt;/font&gt;" style="text;html=1;align=center;verticalAlign=middle;whiteSpace=wrap;rounded=0;" vertex="1" parent="1">
          <mxGeometry x="150" y="565" width="60" height="30" as="geometry" />
        </mxCell>
        <mxCell id="cICFvP4eG1IFSkUvwOIK-31" value="" style="shape=cube;whiteSpace=wrap;html=1;boundedLbl=1;backgroundOutline=1;darkOpacity=0.05;darkOpacity2=0.1;direction=west;" vertex="1" parent="1">
          <mxGeometry x="310" y="540" width="120" height="80" as="geometry" />
        </mxCell>
        <mxCell id="cICFvP4eG1IFSkUvwOIK-32" value="&lt;span style=&quot;font-size: 10px;&quot;&gt;&lt;b&gt;Servidor Aplicação&lt;/b&gt;&lt;/span&gt;" style="text;html=1;align=center;verticalAlign=middle;whiteSpace=wrap;rounded=0;" vertex="1" parent="1">
          <mxGeometry x="295" y="535" width="130" height="30" as="geometry" />
        </mxCell>
        <mxCell id="cICFvP4eG1IFSkUvwOIK-34" value="&lt;font style=&quot;font-size: 14px;&quot;&gt;CoreService&lt;/font&gt;" style="text;html=1;align=center;verticalAlign=middle;whiteSpace=wrap;rounded=0;" vertex="1" parent="1">
          <mxGeometry x="330" y="565" width="60" height="30" as="geometry" />
        </mxCell>
        <mxCell id="cICFvP4eG1IFSkUvwOIK-35" value="" style="shape=cube;whiteSpace=wrap;html=1;boundedLbl=1;backgroundOutline=1;darkOpacity=0.05;darkOpacity2=0.1;direction=west;" vertex="1" parent="1">
          <mxGeometry x="130" y="680" width="120" height="80" as="geometry" />
        </mxCell>
        <mxCell id="cICFvP4eG1IFSkUvwOIK-36" value="&lt;font style=&quot;font-size: 10px;&quot;&gt;&lt;b&gt;Servidor Log/SIEM&lt;/b&gt;&lt;/font&gt;" style="text;html=1;align=center;verticalAlign=middle;whiteSpace=wrap;rounded=0;" vertex="1" parent="1">
          <mxGeometry x="125" y="670" width="110" height="30" as="geometry" />
        </mxCell>
        <mxCell id="cICFvP4eG1IFSkUvwOIK-37" value="&lt;font style=&quot;font-size: 14px;&quot;&gt;Wazuh/Elastic&lt;/font&gt;" style="text;html=1;align=center;verticalAlign=middle;whiteSpace=wrap;rounded=0;" vertex="1" parent="1">
          <mxGeometry x="150" y="705" width="60" height="30" as="geometry" />
        </mxCell>
        <mxCell id="cICFvP4eG1IFSkUvwOIK-38" value="" style="shape=cube;whiteSpace=wrap;html=1;boundedLbl=1;backgroundOutline=1;darkOpacity=0.05;darkOpacity2=0.1;direction=west;" vertex="1" parent="1">
          <mxGeometry x="310" y="680" width="120" height="80" as="geometry" />
        </mxCell>
        <mxCell id="cICFvP4eG1IFSkUvwOIK-39" value="&lt;font style=&quot;font-size: 10px;&quot;&gt;&lt;b&gt;Autenticação&lt;/b&gt;&lt;/font&gt;" style="text;html=1;align=center;verticalAlign=middle;whiteSpace=wrap;rounded=0;" vertex="1" parent="1">
          <mxGeometry x="330" y="670" width="60" height="30" as="geometry" />
        </mxCell>
        <mxCell id="cICFvP4eG1IFSkUvwOIK-40" value="&lt;font style=&quot;font-size: 14px;&quot;&gt;OpenLDAP&lt;/font&gt;" style="text;html=1;align=center;verticalAlign=middle;whiteSpace=wrap;rounded=0;" vertex="1" parent="1">
          <mxGeometry x="330" y="706" width="60" height="30" as="geometry" />
        </mxCell>
        <mxCell id="cICFvP4eG1IFSkUvwOIK-41" value="" style="shape=cube;whiteSpace=wrap;html=1;boundedLbl=1;backgroundOutline=1;darkOpacity=0.05;darkOpacity2=0.1;direction=west;" vertex="1" parent="1">
          <mxGeometry x="500" y="680" width="120" height="80" as="geometry" />
        </mxCell>
        <mxCell id="cICFvP4eG1IFSkUvwOIK-42" value="&lt;font size=&quot;1&quot;&gt;&lt;b&gt;Banco de dados&lt;/b&gt;&lt;/font&gt;" style="text;html=1;align=center;verticalAlign=middle;whiteSpace=wrap;rounded=0;" vertex="1" parent="1">
          <mxGeometry x="510" y="670" width="80" height="30" as="geometry" />
        </mxCell>
        <mxCell id="cICFvP4eG1IFSkUvwOIK-43" value="&lt;span style=&quot;font-size: 14px;&quot;&gt;SQL&lt;/span&gt;" style="text;html=1;align=center;verticalAlign=middle;whiteSpace=wrap;rounded=0;" vertex="1" parent="1">
          <mxGeometry x="520" y="705" width="60" height="30" as="geometry" />
        </mxCell>
        <mxCell id="cICFvP4eG1IFSkUvwOIK-47" value="" style="curved=1;endArrow=classic;html=1;rounded=0;exitX=0.75;exitY=1;exitDx=0;exitDy=0;" edge="1" parent="1">
          <mxGeometry width="50" height="50" relative="1" as="geometry">
            <mxPoint x="262.73" y="420" as="sourcePoint" />
            <mxPoint x="190.00272727272747" y="680" as="targetPoint" />
            <Array as="points">
              <mxPoint x="260" y="430" />
              <mxPoint x="280" y="470" />
              <mxPoint x="242.73" y="390" />
              <mxPoint x="300" y="570" />
              <mxPoint x="250" y="650" />
            </Array>
          </mxGeometry>
        </mxCell>
        <mxCell id="cICFvP4eG1IFSkUvwOIK-51" value="Logs" style="edgeLabel;html=1;align=center;verticalAlign=middle;resizable=0;points=[];" vertex="1" connectable="0" parent="cICFvP4eG1IFSkUvwOIK-47">
          <mxGeometry x="0.3055" y="-11" relative="1" as="geometry">
            <mxPoint x="-6" y="32" as="offset" />
          </mxGeometry>
        </mxCell>
        <mxCell id="cICFvP4eG1IFSkUvwOIK-52" style="edgeStyle=orthogonalEdgeStyle;rounded=0;orthogonalLoop=1;jettySize=auto;html=1;exitX=0;exitY=0;exitDx=50;exitDy=0;exitPerimeter=0;entryX=0.318;entryY=0.333;entryDx=0;entryDy=0;entryPerimeter=0;" edge="1" parent="1" source="cICFvP4eG1IFSkUvwOIK-28" target="cICFvP4eG1IFSkUvwOIK-36">
          <mxGeometry relative="1" as="geometry" />
        </mxCell>
        <mxCell id="cICFvP4eG1IFSkUvwOIK-53" value="Alertas" style="edgeLabel;html=1;align=center;verticalAlign=middle;resizable=0;points=[];" vertex="1" connectable="0" parent="cICFvP4eG1IFSkUvwOIK-52">
          <mxGeometry x="0.1554" y="2" relative="1" as="geometry">
            <mxPoint x="13" as="offset" />
          </mxGeometry>
        </mxCell>
        <mxCell id="cICFvP4eG1IFSkUvwOIK-54" style="edgeStyle=orthogonalEdgeStyle;rounded=0;orthogonalLoop=1;jettySize=auto;html=1;exitX=0;exitY=0;exitDx=50;exitDy=0;exitPerimeter=0;entryX=0.936;entryY=1.018;entryDx=0;entryDy=0;entryPerimeter=0;" edge="1" parent="1" source="cICFvP4eG1IFSkUvwOIK-31" target="cICFvP4eG1IFSkUvwOIK-38">
          <mxGeometry relative="1" as="geometry" />
        </mxCell>
        <mxCell id="cICFvP4eG1IFSkUvwOIK-55" value="LDAP&#39;s" style="edgeLabel;html=1;align=center;verticalAlign=middle;resizable=0;points=[];" vertex="1" connectable="0" parent="cICFvP4eG1IFSkUvwOIK-54">
          <mxGeometry x="0.0868" y="-1" relative="1" as="geometry">
            <mxPoint x="6" as="offset" />
          </mxGeometry>
        </mxCell>
        <mxCell id="cICFvP4eG1IFSkUvwOIK-56" style="edgeStyle=orthogonalEdgeStyle;rounded=0;orthogonalLoop=1;jettySize=auto;html=1;exitX=0;exitY=0;exitDx=0;exitDy=0;exitPerimeter=0;entryX=0.925;entryY=0.999;entryDx=0;entryDy=0;entryPerimeter=0;" edge="1" parent="1" source="cICFvP4eG1IFSkUvwOIK-31" target="cICFvP4eG1IFSkUvwOIK-41">
          <mxGeometry relative="1" as="geometry" />
        </mxCell>
        <mxCell id="cICFvP4eG1IFSkUvwOIK-57" value="JDBC (SSL)" style="edgeLabel;html=1;align=center;verticalAlign=middle;resizable=0;points=[];" vertex="1" connectable="0" parent="cICFvP4eG1IFSkUvwOIK-56">
          <mxGeometry x="-0.0464" relative="1" as="geometry">
            <mxPoint as="offset" />
          </mxGeometry>
        </mxCell>
        <mxCell id="cICFvP4eG1IFSkUvwOIK-58" value="" style="endArrow=classic;html=1;rounded=0;entryX=0.25;entryY=0;entryDx=0;entryDy=0;" edge="1" parent="1" target="cICFvP4eG1IFSkUvwOIK-32">
          <mxGeometry width="50" height="50" relative="1" as="geometry">
            <mxPoint x="280" y="420" as="sourcePoint" />
            <mxPoint x="330" y="370" as="targetPoint" />
          </mxGeometry>
        </mxCell>
        <mxCell id="cICFvP4eG1IFSkUvwOIK-60" value="REST/API" style="edgeLabel;html=1;align=center;verticalAlign=middle;resizable=0;points=[];" vertex="1" connectable="0" parent="cICFvP4eG1IFSkUvwOIK-58">
          <mxGeometry x="-0.2226" relative="1" as="geometry">
            <mxPoint x="1" y="-5" as="offset" />
          </mxGeometry>
        </mxCell>
        <mxCell id="cICFvP4eG1IFSkUvwOIK-62" value="" style="endArrow=classic;html=1;rounded=0;exitX=0;exitY=1;exitDx=0;exitDy=0;" edge="1" parent="1" source="cICFvP4eG1IFSkUvwOIK-2" target="cICFvP4eG1IFSkUvwOIK-28">
          <mxGeometry width="50" height="50" relative="1" as="geometry">
            <mxPoint x="120" y="240" as="sourcePoint" />
            <mxPoint x="170" y="190" as="targetPoint" />
            <Array as="points">
              <mxPoint x="80" y="390" />
            </Array>
          </mxGeometry>
        </mxCell>
        <mxCell id="cICFvP4eG1IFSkUvwOIK-63" value="Mirror Port" style="edgeLabel;html=1;align=center;verticalAlign=middle;resizable=0;points=[];" vertex="1" connectable="0" parent="cICFvP4eG1IFSkUvwOIK-62">
          <mxGeometry x="-0.1329" y="-1" relative="1" as="geometry">
            <mxPoint x="-4" y="14" as="offset" />
          </mxGeometry>
        </mxCell>
      </root>
    </mxGraphModel>
  </diagram>
</mxfile>
